# AST/ASF file generated using VICON BodyLanguage
# -----------------------------------------------
:version 1.10
:name VICON
:units
  mass 1.0
  length 0.45
  angle deg
:documentation
   .ast/.asf automatically generated from VICON data using
   VICON BodyBuilder and BodyLanguage model FoxedUp or BRILLIANT.MOD
:root
   order TX TY TZ RX RY RZ
   axis XYZ
   position 0 0 0  
   orientation 0 0 0 
:bonedata
  begin
     id 1 
     name lhipjoint
     direction 0.62366 -0.717238 0.310833 
     length 2.53602 
     axis 0 0 0  XYZ
  end
  begin
     id 2 
     name lfemur
     direction 0.34202 -0.939693 0  
     length 7.40817  
     axis 0 0 20  XYZ
    dof rx ry rz
    limits (-160.0 20.0)
           (-70.0 70.0)
           (-60.0 70.0)
  end
  begin
     id 3 
     name ltibia
     direction 0.34202 -0.939693 0   
     length 7.7045   
     axis 0 0 20   XYZ
    dof rx
    limits (-10.0 170.0)
  end
  begin
     id 4 
     name lfoot
     direction 0.0673888 -0.185149 0.980397   
     length 2.09456   
     axis -90 7.62852e-016 20   XYZ
    dof rx rz
    limits (-45.0 90.0)
           (-70.0 20.0)
  end
  begin
     id 5 
     name ltoes
     direction 1.53575e-011 -4.21994e-011 1   
     length 1.05543   
     axis -90 7.62852e-016 20   XYZ
    dof rx
    limits (-90.0 20.0)
  end
  begin
     id 6 
     name rhipjoint
     direction -0.489018 -0.800347 0.346851   
     length 2.27268  
     axis 0 0 0  XYZ 
  end
  begin
     id 7 
     name rfemur
     direction -0.34202 -0.939693 0   
     length 7.55487   
     axis 0 0 -20   XYZ
    dof rx ry rz
    limits (-160.0 20.0)
           (-70.0 70.0)
           (-70.0 60.0)
  end
  begin
     id 8 
     name rtibia
     direction -0.34202 -0.939693 0   
     length 7.78969   
     axis 0 0 -20   XYZ
    dof rx
    limits (-10.0 170.0)
 end
 begin
     id 9 
     name rfoot
     direction -0.0859318 -0.236096 0.967923   
     length 2.19143  
     axis -90 -7.62852e-016 -20   XYZ
    dof rx rz
    limits (-45.0 90.0)
           (-20.0 70.0)
  end
  begin
     id 10 
     name rtoes
     direction -1.53538e-011 -4.21989e-011 1   
     length 1.09845   
     axis -90 -7.62852e-016 -20   XYZ
    dof rx
    limits (-90.0 20.0)
  end
  begin
     id 11 
     name lowerback
     direction -0.00762546 0.998978 -0.0445553   
     length 1.98161   
     axis 0 0 0   XYZ
    dof rx ry rz
    limits (-20.0 45.0)
           (-30.0 30.0)
           (-30.0 30.0)
  end
  begin
     id 12 
     name upperback
     direction 0.0422361 0.998867 -0.0219156   
     length 1.97558   
     axis 0 0 0   XYZ
    dof rx ry rz
    limits (-20.0 45.0)
           (-30.0 30.0)
           (-30.0 30.0)
  end
  begin
     id 13 
     name thorax
     direction 0.0442465 0.999021 7.47603e-005   
     length 1.97799   
     axis 0 0 0   XYZ
    dof rx ry rz
    limits (-20.0 45.0)
           (-30.0 30.0)
           (-30.0 30.0)
  end
  begin
     id 14 
     name lowerneck
     direction 0.00312169 0.984641 0.174564   
     length 1.78995   
     axis 0 0 0   XYZ
    dof rx ry rz
    limits (-20.0 45.0)
           (-30.0 30.0)
           (-30.0 30.0)
  end
  begin
     id 15 
     name upperneck
     direction -0.0383028 0.985255 -0.166749   
     length 1.83053   
     axis 0 0 0   XYZ
    dof rx ry rz
    limits (-20.0 45.0)
           (-30.0 30.0)
           (-30.0 30.0)
  end
  begin
     id 16
     name head
     direction -0.0129546 0.997059 -0.0755386  
     length 1.84088  
     axis 0 0 0   XYZ
    dof rx ry rz
    limits (-20.0 45.0)
           (-30.0 30.0)
           (-30.0 30.0)
  end
  begin
     id 17 
     name lclavicle
     direction 0.912857 0.370519 -0.171488  
     length 3.51279  
     axis 0 0 0   XYZ
    dof ry rz
    limits (-20.0 10.0)
           (0.0 20.0)
  end
  begin
     id 18 
     name lhumerus
     direction 1 -4.48962e-011 3.64361e-027   
     length 4.95663   
     axis 180 -30 -90   XYZ
    dof rx ry rz
    limits (-60.0 90.0)
           (-90.0 90.0)
           (-90.0 90.0)
  end
  begin
     id 19
     name lradius
     direction 1 -4.48974e-011 5.97202e-027   
     length 3.38177   
     axis 180 -30 -90   XYZ
    dof rx
    limits (-10.0 170.0)
  end
  begin
     id 20
     name lwrist
     direction 1 -4.4896e-011 9.83288e-027   
     length 1.69088   
     axis -9.31221e-015 90 90   XYZ
    dof ry
    limits (-180.0 0.0)
 end
  begin
     id 21 
     name lhand
     direction 1 -4.4902e-011 1.96551e-026   
     length 0.662909   
     axis -1.25475e-014 90 90   XYZ
    dof rx rz
    limits (-90.0 90.0)
           (-45.0 45.0)
  end
  begin
     id 22 
     name lfingers
     direction 1 -4.48971e-011 3.93277e-026   
     length 0.534454   
     axis -2.50945e-014 90 90   XYZ
    dof rx
    limits (0.0 90.0)
  end
  begin
     id 23
     name lthumb
     direction 0.707107 -6.34933e-011 0.707107   
     length 0.767373   
     axis -90 45 -4.80359e-014   XYZ
    dof rx rz
    limits (-45.0 45.0)
           (-45.0 45.0)
  end
  begin
     id 24 
     name rclavicle
     direction -0.900919 0.395364 -0.178976   
     length 3.40627  
     axis 0 0 0   XYZ 
    dof ry rz
    limits (-10.0 20.0)
           (-20.0 0.0)
  end
  begin
     id 25 
     name rhumerus
     direction -1 -4.48969e-011 1.03875e-027  
     length 5.08365   
     axis 180 30 90   XYZ
    dof rx ry rz
    limits (-90.0 60.0)
           (-90.0 90.0)
           (-90.0 90.0)
  end
  begin
     id 26 
     name rradius
     direction -1 -4.48951e-011 5.02733e-027   
     length 3.35984   
     axis 180 30 90   XYZ
    dof rx
    limits (-10.0 170.0)
  end
  begin
     id 27 
     name rwrist
     direction -1 -4.49011e-011 9.82828e-027   
     length 1.67992   
     axis -9.31221e-015 -90 -90   XYZ
    dof ry
    limits (-180.0 0.0)
  end
  begin
     id 28
     name rhand
     direction -1 -4.48894e-011 1.96774e-026   
     length 0.820764   
     axis -1.25475e-014 -90 -90   XYZ
    dof rx rz
    limits (-90.0 90.0)
           (-45.0 45.0)
  end
  begin
     id 29
     name rfingers
     direction -1 -4.49095e-011 3.92833e-026   
     length 0.661721   
     axis -2.50945e-014 -90 -90   XYZ
    dof rx
    limits (0.0 90.0)
  end
  begin
     id 30
     name rthumb
     direction -0.707107 -6.34881e-011 0.707107   
     length 0.950103   
     axis -90 -45 4.80359e-014   XYZ
    dof rx rz
    limits (-45.0 45.0)
           (-45.0 45.0)
  end
:hierarchy
  begin
    root lhipjoint rhipjoint lowerback
    lhipjoint lfemur
    lfemur ltibia
    ltibia lfoot
    lfoot ltoes
    rhipjoint rfemur
    rfemur rtibia
    rtibia rfoot
    rfoot rtoes
    lowerback upperback
    upperback thorax
    thorax lowerneck lclavicle rclavicle
    lowerneck upperneck
    upperneck head
    lclavicle lhumerus
    lhumerus lradius
    lradius lwrist
    lwrist lhand lthumb
    lhand lfingers
    rclavicle rhumerus
    rhumerus rradius
    rradius rwrist
    rwrist rhand rthumb
    rhand rfingers
  end

#!OML:ASF I:\golf\golf\golf 2\Subject 1\2002-09-07\Subject1.ASF
:FULLY-SPECIFIED
:DEGREES
31
root -8.14462 17.5882 -0.210066 -117.321 86.7154 -133.145
lowerback 4.98931 2.01386 -1.29954
upperback 3.68221 2.77659 4.67535
thorax 0.709255 1.38512 5.44662
lowerneck -15.1535 -2.33099 1.36959
upperneck 37.2313 -0.41414 -4.87346
head 15.6501 -0.146132 -2.26307
rclavicle 4.77083e-015 3.18055e-014
rhumerus -3.3053 -1.77843 -101.027
rradius 20.99
rwrist -37.6263
rhand -13.3574 -7.62779
rfingers 7.12502
rthumb 12.7487 -37.2186
lclavicle 4.77083e-015 3.18055e-014
lhumerus -7.1271 -40.4811 109.336
lradius 25.8597
lwrist 45.2384
lhand -15.7277 68.0134
lfingers 7.12502
lthumb -169.537 82.267
rfemur -31.924 -2.38669 10.2655
rtibia 33.1646
rfoot -9.84368 -9.75312
rtoes -21.9621
lfemur -33.5142 5.45529 -8.87502
ltibia 33.6604
lfoot -12.5975 -5.39728
ltoes -20.1808
32
root -8.14397 17.5872 -0.210584 -116.628 86.7363 -132.426
lowerback 5.01317 2.02133 -1.31263
upperback 3.67454 2.78628 4.67448
thorax 0.686486 1.39018 5.45149
lowerneck -15.1228 -2.31974 1.27109
upperneck 37.2567 -0.404002 -4.75879
head 15.6577 -0.138708 -2.19453
rclavicle -2.22639e-014 -6.12257e-014
rhumerus -3.30328 -1.57759 -101.099
rradius 21.0485
rwrist -38.055
rhand -13.873 -7.60459
rfingers 7.12502
rthumb 12.2516 -37.2257
lclavicle -2.22639e-014 -6.12257e-014
lhumerus -7.16998 -40.5301 109.373
lradius 25.9565
lwrist 45.6118
lhand -16.0654 68.0578
lfingers 7.12502
lthumb -169.863 82.2064
rfemur -31.9082 -2.3579 10.2672
rtibia 33.1748
rfoot -9.92583 -9.7181
rtoes -21.8929
lfemur -33.4832 5.58478 -8.89715
ltibia 33.6716
lfoot -12.5838 -5.46801
ltoes -20.3089
33
root -8.14423 17.5865 -0.211939 -116.387 86.7308 -132.192
lowerback 5.0235 2.01626 -1.3177
upperback 3.65512 2.77962 4.67939
thorax 0.660893 1.3873 5.45894
lowerneck -15.0924 -2.30503 1.2522
upperneck 37.2533 -0.383648 -4.73545
head 15.6501 -0.129205 -2.17695
rclavicle 1.15295e-014 2.14687e-014
rhumerus -3.27378 -1.68037 -101.114
rradius 20.9861
rwrist -37.9205
rhand -13.8332 -7.62061
rfingers 7.12502
rthumb 12.2899 -37.2395
lclavicle 1.15295e-014 2.14687e-014
lhumerus -7.19247 -40.4833 109.406
lradius 25.9373
lwrist 45.5646
lhand -16.0389 68.068
lfingers 7.12502
lthumb -169.837 82.1974
rfemur -31.9143 -2.35157 10.2748
rtibia 33.1744
rfoot -9.99569 -9.66984
rtoes -21.2078
lfemur -33.5091 5.58012 -8.88406
ltibia 33.6888
lfoot -12.5424 -5.46151
ltoes -19.9672
34
root -8.1445 17.5863 -0.213396 -116.026 86.6988 -131.826
lowerback 5.03043 2.00455 -1.2969
upperback 3.65575 2.76556 4.69445
thorax 0.659386 1.38075 5.46344
lowerneck -15.119 -2.28883 1.25798
upperneck 37.2885 -0.354987 -4.74207
head 15.6755 -0.116729 -2.17746
rclavicle -6.75868e-015 -4.53229e-014
rhumerus -3.26411 -1.65601 -101.102
rradius 20.9843
rwrist -37.9108
rhand -13.8146 -7.61967
rfingers 7.12502
rthumb 12.3079 -37.2374
lclavicle -6.75868e-015 -4.53229e-014
lhumerus -7.26264 -40.5069 109.413
lradius 25.9874
lwrist 45.5325
lhand -16.0829 68.0612
lfingers 7.12502
lthumb -169.88 82.2022
rfemur -31.9054 -2.34859 10.3169
rtibia 33.1678
rfoot -9.9895 -9.64735
rtoes -21.2082
lfemur -33.5269 5.57527 -8.84504
ltibia 33.7077
lfoot -12.5471 -5.43279
ltoes -19.9774
